<?xml version="1.0" encoding="UTF-8" standalone="no"?>
<!-- Created with Inkscape (http://www.inkscape.org/) -->

<svg
   xmlns:dc="http://purl.org/dc/elements/1.1/"
   xmlns:cc="http://creativecommons.org/ns#"
   xmlns:rdf="http://www.w3.org/1999/02/22-rdf-syntax-ns#"
   xmlns:svg="http://www.w3.org/2000/svg"
   xmlns="http://www.w3.org/2000/svg"
   xmlns:sodipodi="http://sodipodi.sourceforge.net/DTD/sodipodi-0.dtd"
   xmlns:inkscape="http://www.inkscape.org/namespaces/inkscape"
   width="411.47592mm"
   height="599.43365mm"
   viewBox="0 0 411.47591 599.43366"
   version="1.1"
   id="svg8"
   inkscape:version="0.92.3 (2405546, 2018-03-11)"
   sodipodi:docname="logo.svg">
  <defs
     id="defs2">
    <inkscape:perspective
       sodipodi:type="inkscape:persp3d"
       inkscape:vp_x="0 : 216.58036 : 1"
       inkscape:vp_y="0 : 1000 : 0"
       inkscape:vp_z="213.93452 : 216.58036 : 1"
       inkscape:persp3d-origin="106.96726 : 144.38691 : 1"
       id="perspective3701" />
  </defs>
  <sodipodi:namedview
     id="base"
     pagecolor="#ffffff"
     bordercolor="#666666"
     borderopacity="1.0"
     inkscape:pageopacity="0.0"
     inkscape:pageshadow="2"
     inkscape:zoom="0.24748737"
     inkscape:cx="927.47601"
     inkscape:cy="893.69023"
     inkscape:document-units="mm"
     inkscape:current-layer="layer1"
     showgrid="false"
     inkscape:pagecheckerboard="true"
     showguides="true"
     inkscape:guide-bbox="true"
     inkscape:object-paths="false"
     inkscape:snap-intersection-paths="true"
     inkscape:object-nodes="false"
     inkscape:window-width="1280"
     inkscape:window-height="945"
     inkscape:window-x="-9"
     inkscape:window-y="-9"
     inkscape:window-maximized="1" />
  <metadata
     id="metadata5">
    <rdf:RDF>
      <cc:Work
         rdf:about="">
        <dc:format>image/svg+xml</dc:format>
        <dc:type
           rdf:resource="http://purl.org/dc/dcmitype/StillImage" />
        <dc:title></dc:title>
      </cc:Work>
    </rdf:RDF>
  </metadata>
  <g
     inkscape:label="Capa 1"
     inkscape:groupmode="layer"
     id="layer1"
     transform="translate(110.93947,209.6133)">
    <g
       id="g3725"
       transform="translate(-5.3453905,5.3453905)">
      <path
         sodipodi:nodetypes="csccssccsssc"
         inkscape:connector-curvature="0"
         d="M 590.15323,-230.31478 C -111.03969,-44.446412 194.23037,86.242649 118.4122,239.75472 42.594027,393.26679 -1.1264998e-4,601.47368 0,818.57227 c 0.12810469,293.69283 -362.47157,176.83989 -236.4812,322.37683 1.3031,-1.5344 832.37722,121.5317 445.05347,385.588 -85.95625,58.6003 -353.16314,-169.3684 -356.51235,-163.1407 l -137.38075,255.4494 c 58.10444,62.2601 211.724371,337.3288 277.4637467,337.505 C 99.366305,1956.3516 614.34048,1550.9017 690.15904,1397.39 765.97761,1243.8782 808.57213,1035.6712 808.57227,818.57227 808.57238,601.473 1492.7028,-443.93854 956.83966,179.14417 535.6336,668.90769 397.76483,-78.520161 590.15323,-230.31478 Z"
         style="opacity:1;fill:#2b0000;fill-opacity:1;stroke:#bdffff;stroke-width:5.6692915;stroke-linecap:round;stroke-linejoin:miter;stroke-miterlimit:4;stroke-dasharray:none;stroke-dashoffset:0;stroke-opacity:1;paint-order:markers fill stroke"
         transform="matrix(0.26458333,0,0,0.26458333,-2.2678757,-133.89287)"
         id="path3628" />
      <path
         sodipodi:nodetypes="csscssccccc"
         inkscape:connector-curvature="0"
         transform="matrix(0.26458333,0,0,0.26458333,-2.2678757,-133.89287)"
         d="m -387.54472,-303.55567 c -13.06142,0.009 986.43484,1403.26557 481.438415,1372.02607 C -50.625681,1059.5303 521.70852,965.79084 -60.356647,463.74097 -366.03777,200.0812 20.213737,1315.2199 205.27539,1527.6152 c 1.02225,-0.717 2.1595,-1.0781 3.29688,-1.0781 3.57142,0 7.14257,3.5344 7.14257,10.6055 v 2.0527 c 4.96805,5.3201 10.00834,10.4665 15.12891,15.4141 45.98707,44.4339 315.62377,269.066 364.20931,278.9934 -1029.27142,-1273.89881 328.92997,-128.8972 328.92997,-128.8972 0,0 343.01577,-1677.078 -1311.52775,-2008.26127 z"
         style="opacity:0.82599996;fill:#008080;fill-opacity:1;stroke:#bdffff;stroke-width:5.6692915;stroke-linecap:round;stroke-linejoin:miter;stroke-miterlimit:4;stroke-dasharray:none;stroke-dashoffset:0;stroke-opacity:1;paint-order:markers fill stroke"
         id="path3636" />
      <path
         transform="matrix(0.26458333,0,0,0.26458333,-2.2678757,-133.89287)"
         inkscape:connector-curvature="0"
         id="path3666"
         d="m 374.82504,1632.7913 c -52.4046,-8.5451 -94.48437,-31.5737 -143.35641,-78.4533 -12.80288,-12.281 -16.07143,-16.2111 -16.07143,-19.3244 0,-4.4429 -3.88525,-8.6366 -8.00138,-8.6366 -3.35633,0 -22.05086,-23.0021 -39.67696,-48.8191 l -12.14667,-17.7914 308.45029,-159.5519 c 169.64766,-87.7536 308.70455,-159.5519 309.0153,-159.5519 0.31076,0 -1.60165,9.4821 -4.2498,21.0714 -33.87521,148.2509 -85.48524,265.8992 -154.32164,351.7857 -51.39871,64.1297 -109.72559,104.4596 -169.78343,117.396 -17.381,3.7439 -52.60093,4.6894 -69.85787,1.8755 z"
         style="opacity:1;fill:none;fill-opacity:1;stroke:none;stroke-width:11.71428585;stroke-linecap:round;stroke-linejoin:miter;stroke-miterlimit:4;stroke-dasharray:none;stroke-dashoffset:0;stroke-opacity:1;paint-order:markers fill stroke" />
      <path
         transform="matrix(0.26458333,0,0,0.26458333,-2.2678757,-133.89287)"
         inkscape:connector-curvature="0"
         id="path3668"
         d="m 374.82504,1632.7913 c -52.4046,-8.5451 -94.48437,-31.5737 -143.35641,-78.4533 -12.80288,-12.281 -16.07143,-16.2111 -16.07143,-19.3244 0,-4.4429 -3.88525,-8.6366 -8.00139,-8.6366 -3.35611,0 -22.05056,-23.0016 -39.674,-48.8148 l -12.14373,-17.787 64.55242,-33.3777 c 35.50383,-18.3577 72.98237,-37.7746 83.28565,-43.1486 l 18.73323,-9.771 187.5867,0.031 c 103.17269,0.017 187.93233,0.377 188.35477,0.7995 0.97078,0.9707 -17.22228,37.5505 -29.44878,59.2111 -5.1003,9.0357 -15.89847,26.3928 -23.99593,38.5714 -58.95711,88.6714 -127.67821,143.2544 -199.96323,158.8246 -17.381,3.7438 -52.60093,4.6894 -69.85787,1.8755 z M 147.96535,1446.7341 C 105.44908,1374.849 72.701175,1292.5296 47.516982,1194.2341 25.675895,1108.9869 13.538206,1030.7331 5.0842405,920.66267 2.6350862,888.77474 2.6558628,748.40619 5.1145835,715.66267 15.483612,577.57523 36.142741,467.5086 71.880937,359.94839 c 7.55958,-22.75185 24.429907,-66.81282 32.682053,-85.35715 l 3.65532,-8.21428 h 295.81357 295.81359 l 4.90163,10.75593 c 39.6642,87.03735 72.85457,212.20935 88.43814,333.52978 13.92261,108.38966 16.47449,231.38683 7.12819,343.57143 -5.3326,64.0078 -22.3883,179.0548 -27.19766,183.4583 -1.04007,0.9522 -617.57193,320.1131 -618.37142,320.1131 -0.127,0 -3.17751,-4.9821 -6.779,-11.0714 z"
         style="opacity:1;fill:none;fill-opacity:1;stroke:none;stroke-width:11.71428585;stroke-linecap:round;stroke-linejoin:miter;stroke-miterlimit:4;stroke-dasharray:none;stroke-dashoffset:0;stroke-opacity:1;paint-order:markers fill stroke" />
      <path
         transform="matrix(0.26458333,0,0,0.26458333,-2.2678757,-133.89287)"
         inkscape:connector-curvature="0"
         id="path3670"
         d="m 374.82504,1632.7913 c -52.4046,-8.5451 -94.48437,-31.5737 -143.35641,-78.4533 -12.80288,-12.281 -16.07143,-16.2111 -16.07143,-19.3244 0,-4.4429 -3.88525,-8.6366 -8.00138,-8.6366 -3.35633,0 -22.05086,-23.0021 -39.67696,-48.8191 l -12.14667,-17.7914 308.45029,-159.5519 c 169.64766,-87.7536 308.70455,-159.5519 309.0153,-159.5519 0.31076,0 -1.60165,9.4821 -4.2498,21.0714 -33.87521,148.2509 -85.48524,265.8992 -154.32164,351.7857 -51.39871,64.1297 -109.72559,104.4596 -169.78343,117.396 -17.381,3.7439 -52.60093,4.6894 -69.85787,1.8755 z"
         style="opacity:1;fill:none;fill-opacity:1;stroke:none;stroke-width:11.71428585;stroke-linecap:round;stroke-linejoin:miter;stroke-miterlimit:4;stroke-dasharray:none;stroke-dashoffset:0;stroke-opacity:1;paint-order:markers fill stroke" />
      <path
         transform="matrix(0.26458333,0,0,0.26458333,-2.2678757,-133.89287)"
         inkscape:connector-curvature="0"
         id="path3672"
         d="m 374.82504,1632.7913 c -52.4046,-8.5451 -94.48437,-31.5737 -143.35641,-78.4533 -12.80288,-12.281 -16.07143,-16.2111 -16.07143,-19.3244 0,-4.4429 -3.88525,-8.6366 -8.00138,-8.6366 -3.35633,0 -22.05086,-23.0021 -39.67696,-48.8191 l -12.14667,-17.7914 308.45029,-159.5519 c 169.64766,-87.7536 308.70455,-159.5519 309.0153,-159.5519 0.31076,0 -1.60165,9.4821 -4.2498,21.0714 -33.87521,148.2509 -85.48524,265.8992 -154.32164,351.7857 -51.39871,64.1297 -109.72559,104.4596 -169.78343,117.396 -17.381,3.7439 -52.60093,4.6894 -69.85787,1.8755 z"
         style="opacity:1;fill:none;fill-opacity:1;stroke:none;stroke-width:11.71428585;stroke-linecap:round;stroke-linejoin:miter;stroke-miterlimit:4;stroke-dasharray:none;stroke-dashoffset:0;stroke-opacity:1;paint-order:markers fill stroke" />
      <path
         transform="matrix(0.26458333,0,0,0.26458333,-2.2678757,-133.89287)"
         inkscape:connector-curvature="0"
         id="path3676"
         d="m 364.68291,1630.0396 c -48.20476,-10.1032 -86.97513,-32.429 -132.34689,-76.2116 -8.37381,-8.0805 -15.62704,-16.2933 -16.1183,-18.2507 -0.90132,-3.5911 -5.57505,-9.2003 -7.66594,-9.2003 -1.64452,0 -11.52804,-10.6222 -20.60302,-22.1429 -9.0755,-11.5213 -31.46,-43.7114 -30.83152,-44.3374 0.76246,-0.7594 611.06019,-316.268 614.32023,-317.5881 1.446,-0.5856 1.7118,-1.8753 -7.39813,35.8976 -22.09956,91.6323 -52.64016,174.9187 -88.05049,240.12 -61.755,113.7099 -138.683,186.6884 -220.59165,209.2663 -25.04585,6.9038 -64.38643,7.9651 -90.71429,2.4471 z"
         style="opacity:1;fill:none;fill-opacity:1;stroke:none;stroke-width:11.71428585;stroke-linecap:round;stroke-linejoin:miter;stroke-miterlimit:4;stroke-dasharray:none;stroke-dashoffset:0;stroke-opacity:1;paint-order:markers fill stroke" />
      <path
         d="m 771.9082,1142.1328 c -0.12786,0.017 -0.28995,0.1026 -0.4707,0.1758 -3.26004,1.3201 -613.55785,316.8285 -614.32031,317.5879 -0.62848,0.626 21.75653,32.8166 30.83203,44.3379 9.07498,11.5207 18.95899,22.1426 20.60351,22.1426 2.09089,0 6.76275,5.61 7.66407,9.2011 0.49126,1.9574 7.74533,10.1695 16.11914,18.25 45.37176,43.7826 84.14289,66.1078 132.34765,76.211 26.32786,5.518 65.66704,4.4565 90.71289,-2.4473 48.14781,-13.2719 94.57149,-43.9728 137.20704,-90.1113 -0.009,-0.8269 -0.0236,-1.6537 -0.0137,-2.4805 4.3e-4,-0.033 0.0759,-2.6163 0.13672,-4.7051 -2.43551,-2.9758 -4.63203,-6.1394 -6.95312,-9.2246 -1.88164,-2.2492 -3.72533,-4.5309 -5.64453,-6.748 -3.23339,-3.7355 -6.72885,-7.2436 -9.875,-11.0528 -1.06473,-1.2891 -1.8996,-2.7632 -3.01172,-4.0117 -1.56677,-1.7589 -3.51168,-3.1657 -5.00391,-4.9883 -1.36384,-1.6657 -2.34536,-3.6122 -3.51758,-5.4179 -1.04787,-1.9532 -2.1726,-3.8664 -3.14258,-5.8594 -0.87825,-1.8046 -2.47149,-6.3761 -3.68359,-8.1465 -0.94681,-1.3829 -2.1731,-2.5534 -3.32226,-3.7734 -0.71309,-0.7571 -1.35608,-1.6377 -2.25977,-2.1524 -1.14985,-0.6549 -2.50666,-0.8503 -3.75977,-1.2754 -1.0359,-0.3514 -1.96685,-0.7602 -2.80468,-1.209 -0.28786,0.1461 -0.57844,0.2853 -0.86133,0.4415 -0.86857,0.4793 -1.59261,1.2062 -2.48828,1.6328 -8.29312,3.3636 -4.28189,1.5641 -12.05078,5.3711 -7.73662,3.1563 -15.20015,7.1839 -23.32618,9.3144 -1.81545,0.476 -8.20603,1.8149 -9.81445,2.1582 -3.06508,1.1448 -3.88787,0.5206 -2.83984,1.2324 11.69907,7.9456 -20.0133,-5.1953 -7.65039,-12.0625 4.20506,-2.3357 1.74732,-1.1851 7.50781,-3.1406 2.9046,-0.6196 5.83124,-1.1504 8.71094,-1.8769 7.3988,-1.8666 14.12134,-5.7086 21.17968,-8.4805 2.28696,-1.0989 4.53163,-2.2918 6.86133,-3.2969 1.22948,-0.5304 2.59489,-0.7206 3.80078,-1.3027 1.41408,-0.6825 2.63329,-1.7149 4.01172,-2.4668 4.10597,-2.2398 8.735,-3.3567 12.58789,-6.0996 2.82777,-1.2286 8.41292,-3.7522 10.97461,-4.2969 1.787,-0.38 3.65263,-0.1882 5.47852,-0.127 0.41265,0.015 1.10733,-0.055 1.1875,0.3497 0.076,0.3844 -1.03273,0.2368 -0.99414,0.6269 0.034,0.3576 0.68229,-0.2256 1.02344,-0.3379 1.62101,-1.0268 5.30593,-3.3908 6.83203,-4.209 6.86929,-3.6828 14.6253,-5.4725 21.80859,-8.416 1.4318,-0.7863 2.83342,-1.6278 4.29492,-2.3574 0.38007,-0.1897 3.80263,-1.5553 4.45899,-1.8496 1.50765,-0.6762 2.92115,-1.5884 4.49804,-2.082 3.25512,-1.0191 4.97833,-0.7618 8.17188,-0.6914 2.66147,-0.015 3.47597,0.019 6.35351,-0.1973 2.47712,-0.1854 5.81779,-0.8844 8.92578,-0.8223 2.41735,0.048 4.69327,0.5585 6.31055,2.127 1.97945,1.9197 1.96901,5.1506 2.95313,7.7265 -0.90462,2.1767 -2.08441,5.692 -3.37696,6.6211 0.007,0.1902 0.0182,0.3807 0.0176,0.5703 -0.004,1.1631 -0.0118,2.3272 -0.0156,3.4903 -0.0454,5.4686 -0.0145,10.9275 0.20508,16.3926 -0.068,5.1026 -0.26161,10.1767 -0.72071,15.2617 -0.1542,1.7077 -0.21195,3.4321 -0.52929,5.1172 -0.71951,3.8223 -2.88588,8.8344 -4.16211,12.1875 -0.29984,0.4096 -0.59148,0.8256 -0.88477,1.2402 16.73911,-22.7644 32.72251,-48.0938 47.80078,-75.8574 35.41033,-65.2013 65.95122,-148.4869 88.05078,-240.1192 7.97119,-33.0513 8.76418,-36.1969 7.86914,-36.0742 z M 624.875,1428.5176 c -0.42089,0.4306 -0.73685,0.9516 -1.10547,1.4277 -2.09702,1.591 -2.83271,2.6976 -2.79492,3.5156 0.0168,-0.031 0.0296,-0.064 0.0469,-0.096 1.00929,-1.8264 2.76221,-3.13 4.06055,-4.7636 0.0465,-0.059 -0.15487,-0.1377 -0.20703,-0.084 z m 9.79688,8.8965 c -0.10179,0.03 -0.35514,0.2493 -0.37305,0.3808 -0.0192,0.1407 -0.0246,0.2825 -0.0332,0.4239 0.19637,-0.272 0.36612,-0.5361 0.44336,-0.7618 0.0144,-0.042 -0.003,-0.053 -0.0371,-0.043 z m -14.72071,1.0898 c -2.23403,0.1437 -4.46795,0.2286 -6.7207,0.252 -1.32771,-0.027 -2.65992,-0.1789 -3.98438,-0.082 -2.54902,0.1864 -0.56891,0.3432 -2.03125,1.1465 -2.46618,1.3547 -3.32008,1.247 -5.7539,2.4649 -0.95577,0.4782 -1.84447,1.0766 -2.76758,1.6152 -6.49928,2.7912 -13.31332,4.8111 -19.86328,7.4629 -2.90287,1.1752 -5.50938,3.1134 -8.13672,4.7793 -3.57335,1.6449 -3.44577,1.9838 -8.0625,1.9238 -2.60863,-0.034 -3.15891,-1.22 -5.27344,-0.2539 -0.49953,0.2284 -0.95586,0.5357 -1.41015,0.8477 4.40371,3.4381 7.55791,7.7553 10.30664,13.0683 3.16407,7.2677 1.46757,3.8406 5.02539,10.3125 0.28547,0.4318 0.55078,0.8786 0.82031,1.3223 0.0556,-0.2415 0.11041,-0.4832 0.16601,-0.7246 0.496,-2.1533 1.04814,-3.059 1.63282,-3.1075 1.80448,-0.1493 3.92489,7.8505 5.73047,12.5411 0.621,0.8192 1.24206,1.6391 1.90234,2.4257 0.1754,0.209 0.35976,0.4099 0.53711,0.6172 0.3119,-0.4104 0.58957,-1.3205 0.82031,-2.9238 0.31571,-2.1942 0.63344,-4.3898 0.94922,-6.584 -0.73155,-0.8214 -0.82966,-0.9633 0.0352,-0.25 -0.012,0.083 -0.0232,0.1667 -0.0352,0.25 0.29722,0.3338 0.39151,0.4483 1.04688,1.1797 3.51919,3.9274 5.24701,5.2519 6.58398,10.5703 0.22299,0.8876 0.49508,1.7614 0.74219,2.6426 -1.98251,-2.6479 2.86273,4.2497 2.52929,5.7734 1.87635,2.1109 2.23659,2.3954 3.97852,5.3086 0.0514,0.086 -0.33366,-0.196 -0.27734,-0.1132 0.82423,1.214 1.8341,2.3144 2.63281,3.5527 1.14208,-1.2482 2.57241,-2.4714 4.33594,-3.5938 0.27921,-0.1776 0.55405,-0.3632 0.83203,-0.5429 -0.0686,-6.412 1.30935,-12.4887 5.04101,-17.9317 1.15147,-1.6794 2.67493,-3.0746 3.93555,-4.6738 0.81003,-1.0276 1.51426,-2.1341 2.27148,-3.2012 0.32958,-2.6266 1.51099,-5.0542 1.97852,-7.6445 0.14173,-0.7857 0.003,-1.5976 0.0508,-2.3945 0.2846,-4.7933 0.62489,-9.535 0.67969,-14.3399 -0.23244,-5.4441 -0.25006,-10.8838 -0.20508,-16.332 0.11381,-1.6745 -0.059,-3.5335 -0.043,-5.3633 z m 5.87695,58.8477 c -2.07399,2.5126 -2.35268,1.8301 -3.85546,4.8105 -0.18908,0.375 -0.24827,0.5089 -0.39454,0.8047 1.42136,-1.8542 2.83912,-3.7247 4.25,-5.6152 z m -31.98632,7.0507 c -0.0284,-0.01 0.20359,0.4098 0.35351,0.6915 -0.10209,-0.2566 -0.20793,-0.5035 -0.31445,-0.6446 -0.0227,-0.03 -0.0342,-0.046 -0.0391,-0.047 z m 15.44336,4.17 c -0.16918,0.1886 -0.22837,0.2507 -0.38086,0.4199 0.0146,-0.01 0.0304,-0.015 0.0449,-0.023 0.14929,-0.089 0.45197,-0.5258 0.33594,-0.3965 z"
         style="opacity:1;fill:none;fill-opacity:1;stroke:none;stroke-width:11.71428585;stroke-linecap:round;stroke-linejoin:miter;stroke-miterlimit:4;stroke-dasharray:none;stroke-dashoffset:0;stroke-opacity:1;paint-order:markers fill stroke"
         transform="matrix(0.26458333,0,0,0.26458333,-2.2678757,-133.89287)"
         id="path3678"
         inkscape:connector-curvature="0" />
    </g>
  </g>
</svg>
